<svg xmlns="http://www.w3.org/2000/svg" viewBox="-0.5 -0.5 48 48" id="Hand--Streamline-Font-Awesome.svg" height="48" width="48"><desc>Hand Streamline Icon: https://streamlinehq.com</desc><!--! Font Awesome Free 6.5.2 by @fontawesome - https://fontawesome.com License - https://fontawesome.com/license/free (Icons: CC BY 4.0, Fonts: SIL OFL 1.1, Code: MIT License) Copyright 2024 Fonticons, Inc.--><path d="M27.8204015625 3.34875c0 -1.5923085937500001 -1.28644140625 -2.87875 -2.87875 -2.87875s-2.87875 1.28644140625 -2.87875 2.87875v18.711875c0 0.7916562500000001 -0.64771875 1.439375 -1.439375 1.439375s-1.439375 -0.64771875 -1.439375 -1.439375V6.2275c0 -1.5923085937500001 -1.28644140625 -2.87875 -2.87875 -2.87875s-2.87875 1.28644140625 -2.87875 2.87875V30.696875c0 0.13494140625 0 0.27887890625 0.00899609375 0.4138203125l-5.44263671875 -5.18175c-1.439375 -1.3674062500000002 -3.7153867187499996 -1.3134296875 -5.0917890625 0.12594531250000002s-1.3134296875 3.7153867187499996 0.12594531250000002 5.0917890625l10.111609375 9.6258203125c3.87731640625 3.69739453125 9.032078125 5.7575 14.39375 5.7575h1.72725c8.744203125 0 15.833124999999999 -7.0889218750000005 15.833124999999999 -15.833124999999999V11.985c0 -1.5923085937500001 -1.28644140625 -2.87875 -2.87875 -2.87875s-2.87875 1.28644140625 -2.87875 2.87875v10.075625c0 0.7916562500000001 -0.64771875 1.439375 -1.439375 1.439375s-1.439375 -0.64771875 -1.439375 -1.439375V6.2275c0 -1.5923085937500001 -1.28644140625 -2.87875 -2.87875 -2.87875s-2.87875 1.28644140625 -2.87875 2.87875v15.833124999999999c0 0.7916562500000001 -0.64771875 1.439375 -1.439375 1.439375s-1.439375 -0.64771875 -1.439375 -1.439375V3.34875Z" fill="#000000" stroke-width="1"></path></svg>